M48
; DRILL file {KiCad 9.0.6} date 2025-12-15T01:20:49-0500
; FORMAT={-:-/ absolute / metric / decimal}
; #@! TF.CreationDate,2025-12-15T01:20:49-05:00
; #@! TF.GenerationSoftware,Kicad,Pcbnew,9.0.6
; #@! TF.FileFunction,Plated,1,2,PTH
FMAT,2
METRIC
; #@! TA.AperFunction,Plated,PTH,ViaDrill
T1C0.300
; #@! TA.AperFunction,Plated,PTH,ComponentDrill
T2C0.750
; #@! TA.AperFunction,Plated,PTH,ComponentDrill
T3C0.900
; #@! TA.AperFunction,Plated,PTH,ComponentDrill
T4C0.950
; #@! TA.AperFunction,Plated,PTH,ComponentDrill
T5C1.000
; #@! TA.AperFunction,Plated,PTH,ComponentDrill
T6C1.600
%
G90
G05
T1
X98.05Y-107.95
X98.05Y-113.5
X100.64Y-64.805
X104.577Y-79.053
X107.85Y-115.1
X107.854Y-97.906
X109.25Y-117.15
X109.25Y-122.2
X110.5Y-73.25
X110.85Y-128.45
X111.62Y-98.65
X112.3Y-98.05
X112.866Y-97.45
X112.931Y-114.881
X113.219Y-126.881
X113.448Y-96.836
X113.9Y-115.5
X113.949Y-96.194
X114.0Y-67.0
X114.5Y-95.594
X115.1Y-95.0
X115.25Y-126.85
X116.5Y-73.1
X116.5Y-76.75
X116.75Y-67.25
X116.75Y-68.15
X118.45Y-107.05
X118.5Y-105.95
X119.5Y-71.75
X120.5Y-117.75
X120.855Y-94.955
X121.2Y-113.9
X122.5Y-67.75
X122.6Y-116.7
X123.1Y-112.05
X123.3Y-101.0
X124.625Y-63.75
X125.25Y-68.0
X125.25Y-78.85
X125.26Y-82.03
X126.625Y-97.725
X126.625Y-98.675
X126.913Y-101.3
X127.45Y-111.75
X127.65Y-114.7
X127.65Y-115.9
X128.25Y-100.45
X129.125Y-63.75
X129.35Y-115.3
X129.35Y-116.5
X129.6Y-110.9
X129.65Y-108.6
X129.817Y-109.599
X130.425Y-106.225
X130.899Y-104.949
X131.1Y-101.3
X133.25Y-90.7
X133.8Y-65.05
X135.75Y-65.0
X138.519Y-94.231
X141.8Y-104.15
X144.5Y-90.2
T2
X116.25Y-52.75
X117.52Y-52.75
X118.79Y-52.75
X124.96Y-52.75
X126.23Y-52.75
X127.5Y-52.75
T3
X133.31Y-52.5
X135.85Y-52.5
X139.31Y-52.5
X141.85Y-52.5
T4
X102.15Y-141.25
X104.65Y-141.25
X107.15Y-141.25
X125.25Y-86.85
X127.75Y-86.85
X130.25Y-86.85
X132.75Y-86.85
X135.25Y-86.85
X143.0Y-94.5
X143.0Y-97.0
X143.0Y-99.5
T5
X101.2Y-111.21
X101.2Y-113.75
X101.2Y-116.29
X103.21Y-82.65
X103.21Y-85.19
X103.21Y-87.73
X103.21Y-90.27
X103.21Y-92.81
X103.21Y-95.35
X103.21Y-97.89
X108.06Y-62.703
X108.06Y-77.943
X110.35Y-82.55
X110.6Y-62.703
X110.6Y-77.943
X111.45Y-90.75
X113.14Y-62.703
X113.14Y-77.943
X115.68Y-62.703
X115.68Y-77.943
X118.22Y-62.703
X118.22Y-77.943
X119.05Y-90.75
X120.76Y-62.703
X120.76Y-77.943
X143.1Y-68.38
X143.1Y-70.92
X143.1Y-73.46
X143.1Y-76.0
T6
X83.53Y-113.4
X91.15Y-113.4
M30
